<?xml version="1.0" encoding="UTF-8"?>
<svg width="10px" height="10px" viewBox="0 0 10 10" version="1.1" xmlns="http://www.w3.org/2000/svg" xmlns:xlink="http://www.w3.org/1999/xlink">
    <!-- Generator: Sketch 42 (36781) - http://www.bohemiancoding.com/sketch -->
    <title>Fill 407</title>
    <desc>Created with Sketch.</desc>
    <defs></defs>
    <g id="Page-1" stroke="none" stroke-width="1" fill="none" fill-rule="evenodd">
        <g id="Desktop-HD" transform="translate(-1083.000000, -626.000000)" fill="#949494">
            <path d="M1092.7,626.3 C1092.3,625.9 1091.7,625.9 1091.3,626.3 L1088,629.6 L1084.7,626.3 C1084.3,625.9 1083.7,625.9 1083.3,626.3 C1082.9,626.7 1082.9,627.3 1083.3,627.7 L1086.6,631 L1083.3,634.3 C1082.9,634.7 1082.9,635.3 1083.3,635.7 C1083.5,635.9 1083.7,636 1084,636 C1084.3,636 1084.5,635.9 1084.7,635.7 L1088,632.4 L1091.3,635.7 C1091.5,635.9 1091.8,636 1092,636 C1092.2,636 1092.5,635.9 1092.7,635.7 C1093.1,635.3 1093.1,634.7 1092.7,634.3 L1089.4,631 L1092.7,627.7 C1093.1,627.3 1093.1,626.7 1092.7,626.3" id="Fill-407"></path>
        </g>
    </g>
</svg>