<?xml version="1.0" encoding="UTF-8"?>
<svg width="24px" height="24px" viewBox="0 0 24 24" version="1.1" xmlns="http://www.w3.org/2000/svg" xmlns:xlink="http://www.w3.org/1999/xlink">
    <!-- Generator: Sketch 42 (36781) - http://www.bohemiancoding.com/sketch -->
    <title>Fill 113</title>
    <desc>Created with Sketch.</desc>
    <defs></defs>
    <g id="Page-1" stroke="none" stroke-width="1" fill="none" fill-rule="evenodd">
        <g id="Desktop-HD" transform="translate(-1076.000000, -589.000000)" fill="#D9D9D9">
            <path d="M1092.7,604.3 C1093.1,604.7 1093.1,605.3 1092.7,605.7 C1092.5,605.9 1092.3,606 1092,606 C1091.7,606 1091.5,605.9 1091.3,605.7 L1088,602.4 L1084.7,605.7 C1084.5,605.9 1084.3,606 1084,606 C1083.7,606 1083.5,605.9 1083.3,605.7 C1082.9,605.3 1082.9,604.7 1083.3,604.3 L1086.6,601 L1083.3,597.7 C1082.9,597.3 1082.9,596.7 1083.3,596.3 C1083.7,595.9 1084.3,595.9 1084.7,596.3 L1088,599.6 L1091.3,596.3 C1091.7,595.9 1092.3,595.9 1092.7,596.3 C1093.1,596.7 1093.1,597.3 1092.7,597.7 L1089.4,601 L1092.7,604.3 Z M1088,589 C1081.4,589 1076,594.4 1076,601 C1076,607.6 1081.4,613 1088,613 C1094.6,613 1100,607.6 1100,601 C1100,594.4 1094.6,589 1088,589 L1088,589 Z" id="Fill-113"></path>
        </g>
    </g>
</svg>