<?xml version="1.0" encoding="UTF-8"?>
<svg width="10px" height="10px" viewBox="0 0 10 10" version="1.1" xmlns="http://www.w3.org/2000/svg" xmlns:xlink="http://www.w3.org/1999/xlink">
    <!-- Generator: Sketch 42 (36781) - http://www.bohemiancoding.com/sketch -->
    <title>Fill-407</title>
    <desc>Created with Sketch.</desc>
    <defs></defs>
    <g id="Page-1" stroke="none" stroke-width="1" fill="none" fill-rule="evenodd">
        <path d="M9.7,0.3 C9.3,-0.1 8.7,-0.1 8.3,0.3 L5,3.6 L1.7,0.3 C1.3,-0.1 0.7,-0.1 0.3,0.3 C-0.1,0.7 -0.1,1.3 0.3,1.7 L3.6,5 L0.3,8.3 C-0.1,8.7 -0.1,9.3 0.3,9.7 C0.5,9.9 0.7,10 1,10 C1.3,10 1.5,9.9 1.7,9.7 L5,6.4 L8.3,9.7 C8.5,9.9 8.8,10 9,10 C9.2,10 9.5,9.9 9.7,9.7 C10.1,9.3 10.1,8.7 9.7,8.3 L6.4,5 L9.7,1.7 C10.1,1.3 10.1,0.7 9.7,0.3" id="Fill-407" fill="#444444" fill-rule="nonzero"></path>
    </g>
</svg>