<?xml version="1.0" encoding="UTF-8"?>
<svg width="487px" height="97px" viewBox="0 0 487 97" version="1.1" xmlns="http://www.w3.org/2000/svg" xmlns:xlink="http://www.w3.org/1999/xlink">
    <!-- Generator: Sketch 42 (36781) - http://www.bohemiancoding.com/sketch -->
    <title>TP_PrimaryWhite_RGB</title>
    <desc>Created with Sketch.</desc>
    <defs>
        <polygon id="path-1" points="96.379 96.94 0 96.94 0 48.781 0 0.622 96.379 0.622"></polygon>
    </defs>
    <g id="Page-1" stroke="none" stroke-width="1" fill="none" fill-rule="evenodd">
        <g id="TP_PrimaryWhite_RGB">
            <g id="Group-3">
                <mask id="mask-2" fill="white">
                    <use xlink:href="#path-1"></use>
                </mask>
                <g id="Clip-2"></g>
                <path d="M80.462,31.24 C80.462,35.842 76.719,39.585 72.118,39.585 L47.336,39.585 C44.397,39.585 42.007,41.976 42.007,44.914 L42.007,77.387 C42.007,80.325 44.397,82.716 47.336,82.716 L49.044,82.716 C51.983,82.716 54.373,80.325 54.373,77.387 L54.373,51.482 C52.614,50.858 51.347,49.196 51.347,47.225 C51.347,44.722 53.377,42.69 55.881,42.69 C58.384,42.69 60.415,44.722 60.415,47.225 C60.415,49.196 59.147,50.858 57.388,51.482 L57.388,77.387 C57.388,81.987 53.645,85.731 49.044,85.731 L47.336,85.731 C42.734,85.731 38.992,81.987 38.992,77.387 L38.992,44.914 C38.992,40.313 42.734,36.569 47.336,36.569 L72.118,36.569 C75.056,36.569 77.447,34.179 77.447,31.24 L77.447,29.53 C77.447,26.593 75.056,24.201 72.118,24.201 L24.262,24.201 C21.323,24.201 18.933,26.593 18.933,29.53 L18.933,31.24 C18.933,34.179 21.323,36.569 24.262,36.569 L27.093,36.569 C27.717,34.811 29.378,33.544 31.351,33.544 C33.854,33.544 35.885,35.573 35.885,38.077 C35.885,40.581 33.854,42.611 31.351,42.611 C29.378,42.611 27.717,41.344 27.093,39.585 L24.262,39.585 C19.661,39.585 15.918,35.842 15.918,31.24 L15.918,29.53 C15.918,24.93 19.661,21.187 24.262,21.187 L72.118,21.187 C76.719,21.187 80.462,24.93 80.462,29.53 L80.462,31.24 Z M48.19,0.622 C21.576,0.622 0,22.198 0,48.812 C0,75.426 21.576,97 48.19,97 C74.804,97 96.379,75.426 96.379,48.812 C96.379,22.198 74.804,0.622 48.19,0.622 L48.19,0.622 Z" id="Fill-1" fill="#FFFFFF" mask="url(#mask-2)"></path>
            </g>
            <path d="M114.563,42.331 L109.463,42.331 L109.463,36.212 L114.563,36.212 L114.563,26.521 L122.086,26.521 L122.086,36.212 L130.12,36.212 L130.12,42.331 L122.086,42.331 L122.086,55.399 C122.086,57.1 122.373,58.406 122.947,59.32 C123.521,60.234 124.444,60.69 125.72,60.69 C126.91,60.69 127.855,60.521 128.558,60.181 C129.258,59.842 129.928,59.438 130.564,58.97 L133.752,63.624 C132.265,64.856 130.798,65.738 129.354,66.269 C127.909,66.8 126.294,67.065 124.508,67.065 C122.681,67.065 121.13,66.8 119.855,66.269 C118.581,65.738 117.549,64.983 116.764,64.006 C115.977,63.028 115.414,61.85 115.074,60.468 C114.732,59.087 114.563,57.567 114.563,55.909 L114.563,42.331" id="Fill-4" fill="#FFFFFF"></path>
            <path d="M135.729,36.211 L142.932,36.211 L143.123,39.972 C143.464,39.548 143.899,39.08 144.43,38.569 C144.961,38.06 145.588,37.592 146.311,37.167 C147.033,36.742 147.873,36.38 148.829,36.083 C149.786,35.786 150.88,35.637 152.112,35.637 C152.834,35.637 153.483,35.681 154.057,35.765 C154.63,35.851 155.214,35.998 155.811,36.211 L154.28,43.287 C153.77,43.074 153.249,42.926 152.718,42.84 C152.186,42.755 151.56,42.713 150.837,42.713 C149.817,42.713 148.839,42.883 147.905,43.225 C146.97,43.564 146.161,44.052 145.482,44.689 C144.802,45.327 144.261,46.092 143.857,46.984 C143.452,47.877 143.251,48.876 143.251,49.981 L143.251,66.109 L135.729,66.109 L135.729,36.211" id="Fill-5" fill="#FFFFFF"></path>
            <path d="M175.757,63.306 C174.949,64.283 173.717,65.153 172.06,65.918 C170.401,66.684 168.553,67.065 166.513,67.065 C165.28,67.065 164.059,66.874 162.847,66.493 C161.636,66.109 160.53,65.526 159.532,64.739 C158.533,63.952 157.726,62.944 157.11,61.711 C156.492,60.48 156.185,59.033 156.185,57.376 C156.185,55.677 156.504,54.156 157.143,52.818 C157.779,51.48 158.671,50.354 159.819,49.439 C160.967,48.525 162.347,47.836 163.963,47.367 C165.577,46.899 167.362,46.665 169.317,46.665 C169.913,46.665 170.571,46.677 171.294,46.697 C172.018,46.72 172.717,46.751 173.398,46.793 C174.164,46.836 174.949,46.879 175.757,46.921 L175.757,46.219 C175.757,44.733 175.162,43.564 173.971,42.713 C172.781,41.864 171.23,41.438 169.317,41.438 C167.192,41.438 165.492,41.714 164.217,42.268 C162.942,42.82 161.817,43.414 160.839,44.052 L157.396,38.952 C157.991,38.527 158.671,38.091 159.436,37.646 C160.201,37.199 161.094,36.795 162.114,36.434 C163.134,36.073 164.313,35.775 165.652,35.541 C166.991,35.309 168.553,35.19 170.338,35.19 C172.251,35.19 173.981,35.456 175.533,35.987 C177.084,36.521 178.413,37.262 179.518,38.218 C180.623,39.174 181.472,40.322 182.067,41.661 C182.664,42.999 182.96,44.456 182.96,46.028 L182.96,66.109 L175.948,66.109 L175.757,63.306 Z M175.757,52.594 C174.992,52.552 174.248,52.51 173.526,52.467 C172.93,52.425 172.303,52.394 171.645,52.371 C170.986,52.351 170.423,52.34 169.956,52.34 C167.533,52.34 165.832,52.818 164.855,53.774 C163.877,54.73 163.389,55.824 163.389,57.058 C163.389,58.332 163.845,59.331 164.76,60.053 C165.673,60.777 167.023,61.137 168.809,61.137 C169.701,61.137 170.561,60.989 171.389,60.69 C172.218,60.395 172.951,59.99 173.589,59.481 C174.227,58.969 174.747,58.374 175.151,57.694 C175.554,57.016 175.757,56.292 175.757,55.527 L175.757,52.594 L175.757,52.594 Z" id="Fill-6" fill="#FFFFFF"></path>
            <polyline id="Fill-7" fill="#FFFFFF" points="183.471 36.211 192.141 36.211 200.174 57.63 208.206 36.211 216.43 36.211 203.807 66.109 196.157 66.109 183.471 36.211"></polyline>
            <path d="M245.072,61.774 C244.945,61.902 244.594,62.253 244.019,62.827 C243.447,63.399 242.617,64.006 241.534,64.644 C240.45,65.28 239.069,65.856 237.391,66.364 C235.711,66.874 233.702,67.131 231.366,67.131 C228.984,67.131 226.818,66.726 224.864,65.919 C222.908,65.111 221.239,63.995 219.859,62.571 C218.477,61.148 217.414,59.438 216.671,57.439 C215.927,55.442 215.556,53.232 215.556,50.81 C215.556,48.601 215.927,46.55 216.671,44.658 C217.414,42.768 218.456,41.119 219.795,39.718 C221.135,38.314 222.728,37.21 224.576,36.402 C226.426,35.596 228.475,35.19 230.728,35.19 C233.447,35.19 235.753,35.69 237.644,36.689 C239.536,37.688 241.057,38.995 242.203,40.608 C243.352,42.226 244.18,44.053 244.689,46.093 C245.2,48.133 245.455,50.215 245.455,52.34 L245.455,53.424 L223.143,53.424 C223.143,54.529 223.387,55.527 223.875,56.42 C224.363,57.312 225,58.077 225.787,58.715 C226.573,59.353 227.467,59.842 228.465,60.181 C229.463,60.522 230.452,60.69 231.43,60.69 C232.874,60.69 234.139,60.554 235.223,60.277 C236.307,60.001 237.23,59.682 237.995,59.32 C238.762,58.96 239.389,58.576 239.876,58.173 C240.365,57.77 240.737,57.439 240.992,57.185 L245.072,61.774 Z M237.741,48.006 C237.741,47.239 237.592,46.475 237.295,45.71 C236.997,44.944 236.56,44.255 235.988,43.638 C235.414,43.023 234.682,42.512 233.789,42.108 C232.894,41.704 231.876,41.503 230.728,41.503 C229.495,41.503 228.4,41.704 227.445,42.108 C226.489,42.512 225.691,43.023 225.055,43.638 C224.417,44.255 223.928,44.944 223.588,45.71 C223.247,46.475 223.078,47.239 223.078,48.006 L237.741,48.006 L237.741,48.006 Z" id="Fill-8" fill="#FFFFFF"></path>
            <polygon id="Fill-9" fill="#FFFFFF" points="249.325 66.109 256.848 66.109 256.848 23.588 249.325 23.588"></polygon>
            <path d="M262.093,36.211 L269.359,36.211 L269.552,39.589 C269.934,39.164 270.412,38.719 270.986,38.25 C271.559,37.783 272.238,37.358 273.025,36.976 C273.813,36.593 274.704,36.274 275.703,36.02 C276.702,35.765 277.816,35.637 279.05,35.637 C281.346,35.637 283.332,36.083 285.012,36.976 C286.689,37.868 288.081,39.047 289.188,40.515 C290.291,41.981 291.12,43.649 291.673,45.519 C292.225,47.39 292.502,49.322 292.502,51.319 C292.502,53.658 292.161,55.655 291.48,57.313 C290.801,58.969 289.952,60.415 288.932,61.647 C287.23,63.688 285.372,65.111 283.353,65.918 C281.334,66.726 279.264,67.13 277.137,67.13 C276.16,67.13 275.32,67.087 274.62,67.002 C273.918,66.916 273.281,66.8 272.707,66.652 C272.134,66.502 271.602,66.333 271.113,66.142 C270.625,65.95 270.103,65.749 269.552,65.536 L269.552,78.859 L262.093,78.859 L262.093,36.211 Z M269.552,58.778 C271.039,60.011 273.291,60.627 276.309,60.627 C277.669,60.627 278.881,60.362 279.943,59.83 C281.005,59.299 281.909,58.599 282.652,57.728 C283.395,56.856 283.959,55.867 284.342,54.762 C284.725,53.658 284.915,52.51 284.915,51.319 C284.915,50.044 284.777,48.856 284.501,47.749 C284.225,46.646 283.777,45.677 283.162,44.85 C282.546,44.021 281.749,43.361 280.771,42.872 C279.794,42.384 278.582,42.14 277.137,42.14 C275.99,42.14 274.949,42.384 274.016,42.872 C273.078,43.361 272.281,43.988 271.624,44.753 C270.964,45.519 270.454,46.358 270.093,47.272 C269.73,48.187 269.552,49.067 269.552,49.917 L269.552,58.778 L269.552,58.778 Z" id="Fill-10" fill="#FFFFFF"></path>
            <polygon id="Fill-11" fill="#FFFFFF" points="296.366 66.109 303.889 66.109 303.889 23.588 296.366 23.588"></polygon>
            <path d="M327.022,63.306 C326.215,64.283 324.982,65.153 323.325,65.918 C321.668,66.684 319.819,67.065 317.778,67.065 C316.545,67.065 315.324,66.874 314.112,66.493 C312.901,66.109 311.797,65.526 310.797,64.739 C309.799,63.952 308.991,62.944 308.375,61.711 C307.758,60.48 307.45,59.033 307.45,57.376 C307.45,55.677 307.77,54.156 308.407,52.818 C309.045,51.48 309.938,50.354 311.084,49.439 C312.232,48.525 313.613,47.836 315.228,47.367 C316.844,46.899 318.629,46.665 320.584,46.665 C321.178,46.665 321.836,46.677 322.559,46.697 C323.282,46.72 323.983,46.751 324.663,46.793 C325.428,46.836 326.215,46.879 327.022,46.921 L327.022,46.219 C327.022,44.733 326.426,43.564 325.237,42.713 C324.047,41.864 322.496,41.438 320.584,41.438 C318.457,41.438 316.758,41.714 315.483,42.268 C314.209,42.82 313.082,43.414 312.105,44.052 L308.662,38.952 C309.256,38.527 309.938,38.091 310.702,37.646 C311.467,37.199 312.359,36.795 313.381,36.434 C314.4,36.073 315.578,35.775 316.918,35.541 C318.256,35.309 319.819,35.19 321.603,35.19 C323.516,35.19 325.247,35.456 326.799,35.987 C328.35,36.521 329.678,37.262 330.783,38.218 C331.889,39.174 332.738,40.322 333.334,41.661 C333.928,42.999 334.225,44.456 334.225,46.028 L334.225,66.109 L327.213,66.109 L327.022,63.306 Z M327.022,52.594 C326.258,52.552 325.514,52.51 324.791,52.467 C324.195,52.425 323.569,52.394 322.91,52.371 C322.252,52.351 321.688,52.34 321.221,52.34 C318.799,52.34 317.098,52.818 316.121,53.774 C315.143,54.73 314.655,55.824 314.655,57.058 C314.655,58.332 315.11,59.331 316.025,60.053 C316.938,60.777 318.288,61.137 320.073,61.137 C320.967,61.137 321.826,60.989 322.655,60.69 C323.484,60.395 324.217,59.99 324.855,59.481 C325.492,58.969 326.012,58.374 326.416,57.694 C326.819,57.016 327.022,56.292 327.022,55.527 L327.022,52.594 L327.022,52.594 Z" id="Fill-12" fill="#FFFFFF"></path>
            <path d="M339.352,36.211 L346.556,36.211 L346.746,39.589 C347.129,39.164 347.586,38.719 348.117,38.25 C348.647,37.783 349.285,37.349 350.029,36.943 C350.772,36.54 351.613,36.211 352.547,35.955 C353.482,35.7 354.545,35.573 355.734,35.573 C359.476,35.573 362.322,36.689 364.278,38.92 C366.232,41.152 367.211,44.158 367.211,47.94 L367.211,66.109 L359.688,66.109 L359.688,48.005 C359.688,46.092 359.166,44.616 358.125,43.574 C357.084,42.533 355.734,42.012 354.078,42.012 C353.058,42.012 352.102,42.214 351.209,42.618 C350.316,43.023 349.552,43.585 348.914,44.308 C348.276,45.03 347.776,45.868 347.416,46.824 C347.054,47.781 346.875,48.813 346.875,49.917 L346.875,66.109 L339.352,66.109 L339.352,36.211" id="Fill-13" fill="#FFFFFF"></path>
            <path d="M400.392,61.774 C400.265,61.902 399.914,62.253 399.341,62.827 C398.767,63.399 397.938,64.006 396.853,64.644 C395.77,65.28 394.389,65.856 392.71,66.364 C391.031,66.874 389.023,67.131 386.685,67.131 C384.305,67.131 382.139,66.726 380.184,65.919 C378.228,65.111 376.56,63.995 375.18,62.571 C373.798,61.148 372.734,59.438 371.991,57.439 C371.248,55.442 370.876,53.232 370.876,50.81 C370.876,48.601 371.248,46.55 371.991,44.658 C372.734,42.768 373.775,41.119 375.116,39.718 C376.454,38.314 378.048,37.21 379.896,36.402 C381.745,35.596 383.795,35.19 386.048,35.19 C388.768,35.19 391.074,35.69 392.966,36.689 C394.855,37.688 396.376,38.995 397.523,40.608 C398.671,42.226 399.501,44.053 400.01,46.093 C400.52,48.133 400.776,50.215 400.776,52.34 L400.776,53.424 L378.463,53.424 C378.463,54.529 378.707,55.527 379.195,56.42 C379.684,57.312 380.32,58.077 381.107,58.715 C381.895,59.353 382.786,59.842 383.785,60.181 C384.783,60.522 385.771,60.69 386.75,60.69 C388.195,60.69 389.46,60.554 390.543,60.277 C391.626,60.001 392.551,59.682 393.316,59.32 C394.082,58.96 394.708,58.576 395.197,58.173 C395.685,57.77 396.057,57.439 396.313,57.185 L400.392,61.774 Z M393.06,48.006 C393.06,47.239 392.911,46.475 392.615,45.71 C392.316,44.944 391.882,44.255 391.309,43.638 C390.734,43.023 390.001,42.512 389.109,42.108 C388.216,41.704 387.195,41.503 386.048,41.503 C384.814,41.503 383.723,41.704 382.766,42.108 C381.81,42.512 381.014,43.023 380.375,43.638 C379.738,44.255 379.248,44.944 378.909,45.71 C378.566,46.475 378.398,47.239 378.398,48.006 L393.06,48.006 L393.06,48.006 Z" id="Fill-14" fill="#FFFFFF"></path>
            <path d="M406.59,42.331 L401.489,42.331 L401.489,36.212 L406.59,36.212 L406.59,26.521 L414.111,26.521 L414.111,36.212 L422.144,36.212 L422.144,42.331 L414.111,42.331 L414.111,55.399 C414.111,57.1 414.398,58.406 414.972,59.32 C415.546,60.234 416.471,60.69 417.745,60.69 C418.935,60.69 419.881,60.521 420.582,60.181 C421.283,59.842 421.952,59.438 422.591,58.97 L425.777,63.624 C424.29,64.856 422.823,65.738 421.379,66.269 C419.934,66.8 418.318,67.065 416.533,67.065 C414.706,67.065 413.155,66.8 411.881,66.269 C410.605,65.738 409.574,64.983 408.788,64.006 C408.001,63.028 407.438,61.85 407.1,60.468 C406.759,59.087 406.59,57.567 406.59,55.909 L406.59,42.331" id="Fill-15" fill="#FFFFFF"></path>
            <path d="M428.11,61.074 C428.11,59.246 428.418,57.589 429.035,56.101 C429.651,54.614 430.448,53.243 431.425,51.99 C432.402,50.736 433.486,49.577 434.677,48.515 C435.866,47.452 437.058,46.411 438.247,45.39 C439.436,44.371 440.488,43.5 441.402,42.777 C442.316,42.055 443.091,41.364 443.729,40.705 C444.366,40.046 444.844,39.377 445.163,38.696 C445.482,38.017 445.642,37.231 445.642,36.338 C445.642,35.786 445.546,35.213 445.355,34.617 C445.163,34.022 444.844,33.502 444.399,33.055 C443.952,32.609 443.368,32.237 442.646,31.939 C441.923,31.642 441.009,31.493 439.904,31.493 C438.926,31.493 438.044,31.642 437.258,31.939 C436.471,32.237 435.77,32.62 435.155,33.087 C434.538,33.555 434.007,34.064 433.561,34.617 C433.115,35.17 432.742,35.701 432.446,36.211 L426.835,32.194 C427.345,31.345 427.983,30.484 428.747,29.612 C429.514,28.742 430.448,27.945 431.553,27.221 C432.657,26.499 433.954,25.915 435.441,25.468 C436.93,25.022 438.629,24.799 440.541,24.799 C442.837,24.799 444.813,25.107 446.471,25.724 C448.128,26.34 449.488,27.158 450.551,28.178 C451.612,29.199 452.399,30.356 452.91,31.652 C453.419,32.949 453.674,34.277 453.674,35.637 C453.674,37.083 453.44,38.421 452.974,39.653 C452.505,40.886 451.89,42.033 451.124,43.096 C450.36,44.158 449.488,45.158 448.51,46.093 C447.532,47.027 446.535,47.92 445.515,48.77 C444.281,49.79 443.124,50.724 442.04,51.574 C440.956,52.425 440.01,53.255 439.203,54.061 C438.395,54.868 437.757,55.687 437.291,56.515 C436.823,57.344 436.589,58.268 436.589,59.288 L453.93,59.288 L453.93,66.109 L428.11,66.109 L428.11,61.074" id="Fill-16" fill="#FFFFFF"></path>
            <path d="M475.152,25.946 L457.62,52.084 L457.62,58.396 L475.472,58.396 L475.472,66.109 L482.676,66.109 L482.676,58.396 L486.819,58.396 L486.819,52.021 L482.676,52.021 L482.676,25.946 L475.152,25.946 Z M475.472,36.53 L475.472,52.021 L464.889,52.021 L475.472,36.53 L475.472,36.53 Z" id="Fill-17" fill="#FFFFFF"></path>
        </g>
    </g>
</svg>