<?xml version="1.0" encoding="UTF-8"?>
<svg width="419px" height="86px" viewBox="0 0 419 86" version="1.1" xmlns="http://www.w3.org/2000/svg" xmlns:xlink="http://www.w3.org/1999/xlink">
    <!-- Generator: Sketch 42 (36781) - http://www.bohemiancoding.com/sketch -->
    <title>Airtickets_White_Landscape_RGB</title>
    <desc>Created with Sketch.</desc>
    <defs></defs>
    <g id="Page-1" stroke="none" stroke-width="1" fill="none" fill-rule="evenodd">
        <g id="Airtickets_White_Landscape_RGB" fill="#FFFFFF">
            <path d="M31.223,26.417 C34.566,27.033 36.825,29.073 37.877,30.241 C43.587,37.081 56.316,59.847 64.153,72.673 C71.149,84.124 74.167,86 77.986,86 C81.816,86 85.04,82.849 85.04,78.994 L85.04,7.969 C85.04,4.115 81.888,0.96 78.038,0.96 L7,0.96 C3.149,0.96 0,4.115 0,7.969 L0,78.994 C0,82.849 3.149,86 7,86 L23.406,86 L12.841,25.882 C12.841,25.882 24.666,25.611 31.223,26.417" id="Fill-1"></path>
            <path d="M129.547,42.214 C129.547,40.949 129.334,39.919 128.911,39.128 C128.489,38.336 127.905,37.715 127.172,37.271 C126.433,36.822 125.518,36.517 124.441,36.358 C123.36,36.202 122.157,36.123 120.844,36.123 C117.993,36.123 114.954,36.676 111.742,37.785 C111.004,36.416 110.447,35.12 110.083,33.905 C109.712,32.69 109.53,31.243 109.53,29.554 C111.854,28.762 114.164,28.186 116.492,27.813 C118.81,27.445 120.974,27.259 122.973,27.259 C128.466,27.259 132.747,28.577 135.837,31.216 C138.925,33.852 140.467,38.073 140.467,43.875 L140.467,67.614 C138.619,68.196 136.382,68.751 133.739,69.275 C131.1,69.801 128.121,70.066 124.8,70.066 C122.105,70.066 119.638,69.83 117.4,69.357 C115.159,68.881 113.232,68.086 111.624,66.983 C110.018,65.873 108.775,64.45 107.903,62.711 C107.03,60.969 106.602,58.832 106.602,56.301 C106.602,53.767 107.138,51.643 108.223,49.929 C109.297,48.217 110.7,46.845 112.417,45.817 C114.129,44.785 116.043,44.049 118.148,43.598 C120.263,43.15 122.37,42.926 124.48,42.926 C126.015,42.926 127.696,43.009 129.547,43.163 L129.547,42.214 Z M129.547,50.362 C128.911,50.261 128.224,50.167 127.488,50.086 C126.748,50.006 126.093,49.969 125.511,49.969 C122.925,49.969 120.886,50.433 119.38,51.353 C117.874,52.276 117.127,53.767 117.127,55.822 C117.127,57.197 117.415,58.253 117.993,58.987 C118.574,59.729 119.271,60.272 120.086,60.612 C120.911,60.958 121.777,61.167 122.702,61.245 C123.625,61.325 124.426,61.364 125.111,61.364 C125.905,61.364 126.695,61.299 127.488,61.167 C128.278,61.036 128.968,60.916 129.547,60.812 L129.547,50.362 L129.547,50.362 Z" id="Fill-2"></path>
            <path d="M145.598,28.23 L156.599,28.209 L156.599,69.118 C154.7,69.435 152.855,69.593 151.056,69.593 C149.316,69.593 147.495,69.435 145.598,69.118 L145.598,28.23" id="Fill-3"></path>
            <path d="M162.754,28.209 C163.545,28.049 164.299,27.932 165.009,27.854 C165.719,27.772 166.499,27.732 167.345,27.732 C168.134,27.732 168.911,27.788 169.677,27.894 C170.441,27.997 171.189,28.128 171.936,28.29 C172.085,28.551 172.235,28.936 172.365,29.433 C172.492,29.938 172.614,30.464 172.724,31.017 C172.825,31.572 172.917,32.126 173,32.679 C173.074,33.231 173.144,33.697 173.197,34.064 C174.356,32.431 175.779,30.969 177.471,29.673 C179.157,28.381 181.272,27.732 183.792,27.732 C184.33,27.732 184.621,27.758 185.306,27.813 C185.994,27.866 186.496,27.945 186.818,28.049 C186.917,28.577 186.997,29.188 187.05,29.87 C187.099,30.556 187.125,31.27 187.125,32.006 C187.125,32.905 187.089,33.881 187.014,34.938 C186.93,35.99 186.785,36.994 186.575,37.941 C185.994,37.837 185.343,37.784 184.64,37.784 L183.643,37.784 C182.743,37.784 181.742,37.876 180.635,38.061 C179.522,38.245 178.472,38.734 177.471,39.525 C176.468,40.315 175.64,41.505 174.98,43.084 C174.317,44.668 173.987,46.885 173.987,49.73 L173.987,69.198 C173.037,69.357 172.085,69.463 171.141,69.514 C170.193,69.565 169.269,69.593 168.366,69.593 C167.475,69.593 166.562,69.565 165.641,69.514 C164.718,69.463 163.755,69.357 162.754,69.198 L162.754,28.209" id="Fill-4"></path>
            <path d="M266.857,59.462 C267.488,60.519 268.01,61.746 268.439,63.141 C268.859,64.542 269.072,66.191 269.072,68.086 C266.96,68.935 264.977,69.474 263.131,69.711 C261.285,69.95 259.365,70.066 257.359,70.066 C253.931,70.066 250.951,69.524 248.418,68.446 C245.882,67.366 243.794,65.873 242.126,63.973 C240.464,62.074 239.215,59.819 238.37,57.205 C237.527,54.599 237.102,51.764 237.102,48.704 C237.102,45.694 237.512,42.901 238.332,40.315 C239.15,37.733 240.389,35.46 242.047,33.509 C243.713,31.559 245.777,30.029 248.263,28.919 C250.738,27.815 253.615,27.258 256.887,27.258 C258.046,27.258 259.111,27.287 260.09,27.337 C261.066,27.392 262.004,27.499 262.896,27.655 C263.797,27.815 264.689,28.025 265.583,28.289 C266.482,28.551 267.488,28.895 268.6,29.316 C268.6,30.53 268.439,31.886 268.124,33.392 C267.806,34.898 267.305,36.333 266.613,37.705 C265.033,37.178 263.652,36.823 262.471,36.636 C261.273,36.45 259.917,36.358 258.386,36.358 C255.111,36.358 252.658,37.426 250.99,39.565 C249.329,41.699 248.492,44.744 248.492,48.704 C248.492,52.975 249.391,56.09 251.191,58.041 C252.98,59.991 255.408,60.968 258.466,60.968 C259.257,60.968 259.984,60.958 260.646,60.93 C261.305,60.902 261.951,60.839 262.581,60.732 C263.207,60.626 263.863,60.466 264.518,60.255 C265.181,60.042 265.955,59.784 266.857,59.462" id="Fill-5"></path>
            <path d="M217.22,63.225 C217.055,62.143 216.791,61.102 216.424,60.098 C215.837,60.202 215.17,60.325 214.404,60.456 C213.64,60.585 212.863,60.654 212.072,60.654 C211.066,60.654 210.201,60.548 209.454,60.335 C208.721,60.125 208.1,59.729 207.599,59.148 C207.101,58.568 206.716,57.776 206.456,56.773 C206.188,55.773 206.06,54.452 206.06,52.818 L206.06,36.755 L215.631,36.755 C215.793,35.913 215.896,35.144 215.945,34.461 C216,33.775 216.023,33.062 216.023,32.322 C216.023,31.642 216,30.979 215.945,30.346 C215.896,29.711 215.793,28.998 215.631,28.208 L206.06,28.208 L206.01,16.501 C204.184,16.185 202.333,16.031 200.453,16.031 C198.574,16.031 196.753,16.185 194.983,16.501 L194.983,28.208 L190.33,28.208 C190.173,28.998 190.063,29.711 190.012,30.346 C189.964,30.979 189.932,31.642 189.932,32.322 C189.932,33.062 189.964,33.775 190.012,34.461 C190.063,35.144 190.173,35.913 190.33,36.755 L194.983,36.755 L194.983,55.274 C194.983,60.335 196.242,63.989 198.778,66.229 C201.309,68.472 204.977,69.593 209.773,69.593 C212.367,69.593 214.863,69.302 217.296,68.721 C217.344,68.354 217.38,67.971 217.412,67.575 C217.443,67.179 217.449,66.691 217.449,66.111 C217.449,65.27 217.375,64.304 217.22,63.225" id="Fill-6"></path>
            <path d="M372.164,63.225 C372.002,62.143 371.734,61.102 371.371,60.098 C370.789,60.202 370.125,60.325 369.352,60.456 C368.584,60.585 367.813,60.654 367.017,60.654 C366.016,60.654 365.146,60.548 364.406,60.335 C363.664,60.125 363.05,59.729 362.547,59.148 C362.047,58.568 361.666,57.776 361.397,56.773 C361.14,55.773 361.011,54.452 361.011,52.818 L361.011,36.755 L370.584,36.755 C370.736,35.913 370.843,35.144 370.894,34.461 C370.947,33.775 370.974,33.062 370.974,32.322 C370.974,31.642 370.947,30.979 370.894,30.346 C370.843,29.711 370.736,28.998 370.584,28.208 L361.011,28.208 L360.955,16.501 C359.134,16.185 357.283,16.031 355.404,16.031 C353.525,16.031 351.705,16.185 349.925,16.501 L349.925,28.208 L345.277,28.208 C345.119,28.998 345.014,29.711 344.957,30.346 C344.908,30.979 344.885,31.642 344.885,32.322 C344.885,33.062 344.908,33.775 344.957,34.461 C345.014,35.144 345.119,35.913 345.277,36.755 L349.925,36.755 L349.925,55.274 C349.925,60.335 351.188,63.989 353.721,66.229 C356.259,68.472 359.928,69.593 364.724,69.593 C367.309,69.593 369.816,69.302 372.236,68.721 C372.291,68.354 372.332,67.971 372.359,67.575 C372.391,67.179 372.404,66.691 372.404,66.111 C372.404,65.27 372.316,64.304 372.164,63.225" id="Fill-7"></path>
            <path d="M294.487,47.12 L306.516,28.208 C304.615,27.894 302.663,27.732 300.659,27.732 C298.545,27.732 296.465,27.894 294.407,28.208 L284.279,43.04 L284.279,11.276 C282.43,10.957 280.559,10.801 278.657,10.801 C276.758,10.801 274.912,10.957 273.125,11.276 L273.125,69.118 C274.912,69.435 276.758,69.593 278.657,69.593 C280.559,69.593 282.43,69.435 284.279,69.118 L284.279,52.19 L296.148,69.118 C298.203,69.435 300.153,69.593 302.008,69.593 C304.006,69.593 306.086,69.435 308.254,69.118 L294.487,47.12" id="Fill-8"></path>
            <path d="M317.234,52.103 C317.445,55.274 318.551,57.565 320.555,58.987 C322.559,60.415 325.201,61.125 328.467,61.125 C330.26,61.125 332.095,60.959 333.967,60.612 C335.842,60.271 337.621,59.784 339.313,59.147 C339.891,60.202 340.4,61.47 340.817,62.946 C341.23,64.423 341.467,66.005 341.521,67.692 C337.41,69.275 332.77,70.066 327.598,70.066 C323.803,70.066 320.539,69.537 317.824,68.483 C315.103,67.429 312.894,65.969 311.18,64.094 C309.461,62.221 308.203,59.99 307.379,57.406 C306.563,54.821 306.157,52.003 306.157,48.941 C306.157,45.934 306.578,43.112 307.416,40.473 C308.26,37.836 309.521,35.542 311.18,33.59 C312.838,31.641 314.901,30.097 317.352,28.959 C319.804,27.827 322.666,27.259 325.939,27.259 C328.78,27.259 331.317,27.758 333.537,28.762 C335.75,29.767 337.633,31.137 339.191,32.878 C340.744,34.62 341.916,36.69 342.707,39.09 C343.5,41.49 343.902,44.063 343.902,46.808 C343.902,47.805 343.858,48.794 343.778,49.772 C343.701,50.748 343.605,51.525 343.5,52.103 L317.234,52.103 Z M333.295,44.272 C333.189,41.742 332.494,39.694 331.194,38.14 C329.907,36.585 328.099,35.805 325.78,35.805 C323.139,35.805 321.141,36.545 319.756,38.02 C318.394,39.499 317.571,41.583 317.314,44.272 L333.295,44.272 L333.295,44.272 Z" id="Fill-9"></path>
            <path d="M385.864,51.315 C382.918,50.471 380.602,49.219 378.94,47.553 C377.283,45.895 376.446,43.4 376.446,40.079 C376.446,36.068 377.886,32.93 380.761,30.662 C383.637,28.396 387.556,27.259 392.514,27.259 C394.574,27.259 396.604,27.445 398.606,27.813 C400.605,28.186 402.644,28.733 404.695,29.474 C404.595,30.848 404.33,32.27 403.91,33.747 C403.484,35.227 402.987,36.517 402.403,37.624 C401.141,37.099 399.744,36.637 398.213,36.238 C396.686,35.845 395.065,35.646 393.381,35.646 C391.588,35.646 390.192,35.925 389.19,36.478 C388.187,37.03 387.684,37.913 387.684,39.129 C387.684,40.288 388.049,41.11 388.756,41.582 C389.471,42.059 390.484,42.507 391.801,42.926 L396.311,44.272 C397.791,44.695 399.121,45.211 400.31,45.816 C401.494,46.42 402.512,47.176 403.353,48.068 C404.198,48.968 404.858,50.073 405.33,51.394 C405.804,52.714 406.043,54.319 406.043,56.22 C406.043,58.172 405.631,59.991 404.818,61.681 C404.004,63.369 402.813,64.831 401.258,66.071 C399.705,67.312 397.82,68.287 395.604,68.999 C393.381,69.712 390.875,70.066 388.086,70.066 C386.815,70.066 385.654,70.028 384.604,69.95 C383.545,69.867 382.528,69.736 381.56,69.553 C380.578,69.368 379.617,69.143 378.668,68.881 C377.715,68.616 376.688,68.274 375.584,67.851 C375.684,66.426 375.935,64.99 376.334,63.539 C376.727,62.091 377.242,60.678 377.879,59.306 C379.617,59.991 381.266,60.506 382.82,60.85 C384.379,61.194 386.002,61.364 387.684,61.364 C388.426,61.364 389.227,61.299 390.103,61.168 C390.97,61.036 391.774,60.801 392.514,60.456 C393.254,60.111 393.871,59.662 394.373,59.107 C394.879,58.556 395.121,57.83 395.121,56.931 C395.121,55.663 394.739,54.755 393.981,54.201 C393.215,53.649 392.146,53.161 390.774,52.736 L385.864,51.315" id="Fill-10"></path>
            <path d="M144.771,15.982 C144.771,12.489 147.605,9.655 151.099,9.655 C154.596,9.655 157.424,12.489 157.424,15.982 C157.424,19.479 154.596,22.316 151.099,22.316 C147.605,22.316 144.771,19.479 144.771,15.982" id="Fill-11"></path>
            <path d="M221.738,28.23 L232.732,28.209 L232.732,69.118 C230.842,69.435 228.992,69.593 227.195,69.593 C225.454,69.593 223.635,69.435 221.738,69.118 L221.738,28.23" id="Fill-12"></path>
            <path d="M220.902,15.982 C220.902,12.489 223.746,9.655 227.238,9.655 C230.734,9.655 233.566,12.489 233.566,15.982 C233.566,19.479 230.734,22.316 227.238,22.316 C223.746,22.316 220.902,19.479 220.902,15.982" id="Fill-13"></path>
            <path d="M412.324,22.285 C411.388,22.285 410.533,22.125 409.765,21.803 C408.984,21.481 408.33,21.042 407.783,20.482 C407.232,19.922 406.808,19.258 406.502,18.492 C406.192,17.724 406.043,16.888 406.043,15.986 C406.043,15.092 406.192,14.26 406.502,13.486 C406.808,12.713 407.232,12.047 407.783,11.487 C408.33,10.932 408.984,10.489 409.765,10.168 C410.533,9.848 411.388,9.686 412.324,9.686 C413.265,9.686 414.117,9.844 414.896,10.159 C415.668,10.477 416.328,10.917 416.877,11.48 C417.425,12.045 417.845,12.71 418.156,13.479 C418.457,14.246 418.611,15.082 418.611,15.986 C418.611,16.888 418.457,17.724 418.156,18.492 C417.845,19.258 417.425,19.922 416.877,20.482 C416.328,21.042 415.668,21.481 414.896,21.803 C414.117,22.125 413.265,22.285 412.324,22.285 M412.324,21.033 C413.093,21.033 413.783,20.903 414.394,20.641 C415.006,20.385 415.518,20.027 415.945,19.576 C416.367,19.124 416.692,18.589 416.916,17.977 C417.144,17.36 417.259,16.696 417.259,15.986 C417.259,15.272 417.144,14.611 416.916,13.995 C416.692,13.379 416.367,12.847 415.945,12.394 C415.518,11.943 415.006,11.587 414.394,11.327 C413.783,11.068 413.093,10.939 412.324,10.939 C411.561,10.939 410.871,11.068 410.265,11.327 C409.652,11.587 409.137,11.943 408.713,12.394 C408.287,12.847 407.966,13.379 407.738,13.995 C407.511,14.611 407.401,15.272 407.401,15.986 C407.401,16.696 407.511,17.36 407.738,17.977 C407.966,18.589 408.287,19.124 408.713,19.576 C409.137,20.027 409.652,20.385 410.265,20.641 C410.871,20.903 411.561,21.033 412.324,21.033 M410.06,12.614 C410.373,12.557 410.682,12.515 410.972,12.489 C411.268,12.459 411.593,12.446 411.953,12.446 C413.027,12.446 413.795,12.633 414.256,13.013 C414.72,13.391 414.953,13.891 414.953,14.512 C414.953,14.896 414.877,15.236 414.724,15.535 C414.572,15.835 414.399,16.065 414.207,16.222 L413.955,16.424 L415.441,19.066 C415.287,19.089 415.121,19.108 414.947,19.119 C414.77,19.129 414.59,19.136 414.394,19.136 C414.235,19.136 414.088,19.129 413.947,19.119 C413.803,19.108 413.664,19.089 413.533,19.066 L412.006,16.106 L412.277,15.935 C412.539,15.775 412.75,15.604 412.922,15.418 C413.088,15.23 413.174,15.003 413.174,14.732 C413.174,14.472 413.093,14.26 412.939,14.095 C412.778,13.934 412.533,13.852 412.193,13.852 C412.117,13.852 412.045,13.854 411.98,13.86 C411.92,13.866 411.83,13.879 411.718,13.902 L411.718,19.084 C411.49,19.129 411.229,19.153 410.924,19.153 C410.783,19.153 410.646,19.148 410.502,19.136 C410.352,19.124 410.209,19.108 410.06,19.084 L410.06,12.614" id="Fill-14"></path>
        </g>
    </g>
</svg>