<?xml version="1.0" encoding="utf-8"?>
<!-- Generator: Adobe Illustrator 21.0.0, SVG Export Plug-In . SVG Version: 6.00 Build 0)  -->
<svg version="1.1" id="Layer_1" xmlns="http://www.w3.org/2000/svg" xmlns:xlink="http://www.w3.org/1999/xlink" x="0px" y="0px"
	 viewBox="0 0 419 86" style="enable-background:new 0 0 419 86;" xml:space="preserve">
<style type="text/css">
	.st0{fill:#FFFFFF;}
</style>
<title>Airtickets_White_Landscape_RGB</title>
<desc>Created with Sketch.</desc>
<g id="Page-1">
	<g id="Airtickets_White_Landscape_RGB">
		<path id="Fill-1" class="st0" d="M145.5,37.4c1.2,0.2,2,1,2.4,1.4c2,2.5,6.6,10.6,9.4,15.2c2.5,4.1,3.6,4.8,5,4.8
			c1.4,0,2.5-1.1,2.5-2.5V30.8c0-1.4-1.1-2.5-2.5-2.5h-25.5c-1.4,0-2.5,1.1-2.5,2.5v25.5c0,1.4,1.1,2.5,2.5,2.5h5.9l-3.8-21.5
			C138.9,37.2,143.1,37.1,145.5,37.4"/>
		<path id="Fill-2" class="st0" d="M180.7,43c0-0.5-0.1-0.8-0.2-1.1c-0.2-0.3-0.4-0.5-0.6-0.7c-0.3-0.2-0.6-0.3-1-0.3
			c-0.4-0.1-0.8-0.1-1.3-0.1c-1,0-2.1,0.2-3.3,0.6c-0.3-0.5-0.5-1-0.6-1.4c-0.1-0.4-0.2-1-0.2-1.6c0.8-0.3,1.7-0.5,2.5-0.6
			c0.8-0.1,1.6-0.2,2.3-0.2c2,0,3.5,0.5,4.6,1.4c1.1,0.9,1.7,2.5,1.7,4.5v8.5c-0.7,0.2-1.5,0.4-2.4,0.6c-0.9,0.2-2,0.3-3.2,0.3
			c-1,0-1.8-0.1-2.7-0.3c-0.8-0.2-1.5-0.5-2.1-0.9c-0.6-0.4-1-0.9-1.3-1.5c-0.3-0.6-0.5-1.4-0.5-2.3c0-0.9,0.2-1.7,0.6-2.3
			c0.4-0.6,0.9-1.1,1.5-1.5c0.6-0.4,1.3-0.6,2.1-0.8c0.8-0.2,1.5-0.2,2.3-0.2c0.6,0,1.2,0,1.8,0.1V43z M180.7,45.9
			c-0.2,0-0.5-0.1-0.7-0.1c-0.3,0-0.5,0-0.7,0c-0.9,0-1.7,0.2-2.2,0.5c-0.5,0.3-0.8,0.9-0.8,1.6c0,0.5,0.1,0.9,0.3,1.1
			c0.2,0.3,0.5,0.5,0.7,0.6c0.3,0.1,0.6,0.2,0.9,0.2c0.3,0,0.6,0,0.9,0c0.3,0,0.6,0,0.9-0.1c0.3,0,0.5-0.1,0.7-0.1V45.9L180.7,45.9z
			"/>
		<path id="Fill-3" class="st0" d="M186.5,38l3.9,0v14.7c-0.7,0.1-1.3,0.2-2,0.2c-0.6,0-1.3-0.1-2-0.2V38"/>
		<path id="Fill-4" class="st0" d="M192.6,38c0.3-0.1,0.6-0.1,0.8-0.1c0.3,0,0.5,0,0.8,0c0.3,0,0.6,0,0.8,0.1c0.3,0,0.5,0.1,0.8,0.1
			c0.1,0.1,0.1,0.2,0.2,0.4c0,0.2,0.1,0.4,0.1,0.6c0,0.2,0.1,0.4,0.1,0.6c0,0.2,0.1,0.4,0.1,0.5c0.4-0.6,0.9-1.1,1.5-1.6
			c0.6-0.5,1.4-0.7,2.3-0.7c0.2,0,0.3,0,0.5,0c0.2,0,0.4,0,0.5,0.1c0,0.2,0.1,0.4,0.1,0.7c0,0.2,0,0.5,0,0.8c0,0.3,0,0.7,0,1.1
			c0,0.4-0.1,0.7-0.2,1.1c-0.2,0-0.4-0.1-0.7-0.1h-0.4c-0.3,0-0.7,0-1.1,0.1c-0.4,0.1-0.8,0.2-1.1,0.5c-0.4,0.3-0.7,0.7-0.9,1.3
			c-0.2,0.6-0.4,1.4-0.4,2.4v7c-0.3,0.1-0.7,0.1-1,0.1c-0.3,0-0.7,0-1,0c-0.3,0-0.6,0-1,0c-0.3,0-0.7-0.1-1-0.1V38"/>
		<path id="Fill-5" class="st0" d="M229.9,49.2c0.2,0.4,0.4,0.8,0.6,1.3c0.2,0.5,0.2,1.1,0.2,1.8c-0.8,0.3-1.5,0.5-2.1,0.6
			c-0.7,0.1-1.3,0.1-2.1,0.1c-1.2,0-2.3-0.2-3.2-0.6c-0.9-0.4-1.7-0.9-2.3-1.6c-0.6-0.7-1-1.5-1.3-2.4c-0.3-0.9-0.5-1.9-0.5-3
			c0-1.1,0.1-2.1,0.4-3c0.3-0.9,0.7-1.7,1.3-2.4c0.6-0.7,1.3-1.2,2.2-1.6c0.9-0.4,1.9-0.6,3.1-0.6c0.4,0,0.8,0,1.1,0
			c0.3,0,0.7,0.1,1,0.1c0.3,0.1,0.6,0.1,1,0.2c0.3,0.1,0.7,0.2,1.1,0.4c0,0.4-0.1,0.9-0.2,1.5c-0.1,0.5-0.3,1.1-0.5,1.5
			c-0.6-0.2-1.1-0.3-1.5-0.4c-0.4-0.1-0.9-0.1-1.5-0.1c-1.2,0-2.1,0.4-2.7,1.1c-0.6,0.8-0.9,1.9-0.9,3.3c0,1.5,0.3,2.6,1,3.3
			c0.6,0.7,1.5,1,2.6,1c0.3,0,0.5,0,0.8,0c0.2,0,0.5,0,0.7-0.1c0.2,0,0.5-0.1,0.7-0.2C229.3,49.4,229.6,49.3,229.9,49.2"/>
		<path id="Fill-6" class="st0" d="M212.1,50.6c-0.1-0.4-0.2-0.8-0.3-1.1c-0.2,0-0.4,0.1-0.7,0.1c-0.3,0-0.6,0.1-0.8,0.1
			c-0.4,0-0.7,0-0.9-0.1c-0.3-0.1-0.5-0.2-0.7-0.4c-0.2-0.2-0.3-0.5-0.4-0.9c-0.1-0.4-0.1-0.8-0.1-1.4v-5.8h3.4
			c0.1-0.3,0.1-0.6,0.1-0.8c0-0.2,0-0.5,0-0.8c0-0.2,0-0.5,0-0.7c0-0.2-0.1-0.5-0.1-0.8h-3.4l0-4.2c-0.7-0.1-1.3-0.2-2-0.2
			c-0.7,0-1.3,0.1-2,0.2V38h-1.7c-0.1,0.3-0.1,0.5-0.1,0.8c0,0.2,0,0.5,0,0.7c0,0.3,0,0.5,0,0.8c0,0.2,0.1,0.5,0.1,0.8h1.7v6.6
			c0,1.8,0.5,3.1,1.4,3.9c0.9,0.8,2.2,1.2,3.9,1.2c0.9,0,1.8-0.1,2.7-0.3c0-0.1,0-0.3,0-0.4c0-0.1,0-0.3,0-0.5
			C212.2,51.3,212.2,50.9,212.1,50.6"/>
		<path id="Fill-7" class="st0" d="M267.7,50.6c-0.1-0.4-0.2-0.8-0.3-1.1c-0.2,0-0.4,0.1-0.7,0.1c-0.3,0-0.6,0.1-0.8,0.1
			c-0.4,0-0.7,0-0.9-0.1c-0.3-0.1-0.5-0.2-0.7-0.4c-0.2-0.2-0.3-0.5-0.4-0.9c-0.1-0.4-0.1-0.8-0.1-1.4v-5.8h3.4
			c0.1-0.3,0.1-0.6,0.1-0.8c0-0.2,0-0.5,0-0.8c0-0.2,0-0.5,0-0.7c0-0.2-0.1-0.5-0.1-0.8h-3.4l0-4.2c-0.7-0.1-1.3-0.2-2-0.2
			c-0.7,0-1.3,0.1-2,0.2V38H258c-0.1,0.3-0.1,0.5-0.1,0.8c0,0.2,0,0.5,0,0.7c0,0.3,0,0.5,0,0.8c0,0.2,0.1,0.5,0.1,0.8h1.7v6.6
			c0,1.8,0.5,3.1,1.4,3.9c0.9,0.8,2.2,1.2,3.9,1.2c0.9,0,1.8-0.1,2.7-0.3c0-0.1,0-0.3,0-0.4c0-0.1,0-0.3,0-0.5
			C267.7,51.3,267.7,50.9,267.7,50.6"/>
		<path id="Fill-8" class="st0" d="M239.8,44.8l4.3-6.8c-0.7-0.1-1.4-0.2-2.1-0.2c-0.8,0-1.5,0.1-2.2,0.2l-3.6,5.3V31.9
			c-0.7-0.1-1.3-0.2-2-0.2c-0.7,0-1.3,0.1-2,0.2v20.7c0.6,0.1,1.3,0.2,2,0.2c0.7,0,1.4-0.1,2-0.2v-6.1l4.3,6.1
			c0.7,0.1,1.4,0.2,2.1,0.2c0.7,0,1.5-0.1,2.2-0.2L239.8,44.8"/>
		<path id="Fill-9" class="st0" d="M248,46.6c0.1,1.1,0.5,2,1.2,2.5c0.7,0.5,1.7,0.8,2.8,0.8c0.6,0,1.3-0.1,2-0.2
			c0.7-0.1,1.3-0.3,1.9-0.5c0.2,0.4,0.4,0.8,0.5,1.4c0.1,0.5,0.2,1.1,0.3,1.7c-1.5,0.6-3.1,0.9-5,0.9c-1.4,0-2.5-0.2-3.5-0.6
			c-1-0.4-1.8-0.9-2.4-1.6c-0.6-0.7-1.1-1.5-1.4-2.4c-0.3-0.9-0.4-1.9-0.4-3c0-1.1,0.2-2.1,0.5-3c0.3-0.9,0.8-1.8,1.3-2.5
			c0.6-0.7,1.3-1.3,2.2-1.7c0.9-0.4,1.9-0.6,3.1-0.6c1,0,1.9,0.2,2.7,0.5c0.8,0.4,1.5,0.9,2,1.5c0.6,0.6,1,1.4,1.3,2.2
			c0.3,0.9,0.4,1.8,0.4,2.8c0,0.4,0,0.7,0,1.1c0,0.3-0.1,0.6-0.1,0.8H248z M253.7,43.8c0-0.9-0.3-1.6-0.8-2.2
			c-0.5-0.6-1.1-0.8-1.9-0.8c-0.9,0-1.7,0.3-2.2,0.8c-0.5,0.5-0.8,1.3-0.9,2.2H253.7L253.7,43.8z"/>
		<path id="Fill-10" class="st0" d="M272.6,46.3c-1.1-0.3-1.9-0.8-2.5-1.3c-0.6-0.6-0.9-1.5-0.9-2.7c0-1.4,0.5-2.6,1.5-3.4
			c1-0.8,2.4-1.2,4.2-1.2c0.7,0,1.5,0.1,2.2,0.2c0.7,0.1,1.4,0.3,2.2,0.6c0,0.5-0.1,1-0.3,1.5c-0.2,0.5-0.3,1-0.5,1.4
			c-0.5-0.2-1-0.4-1.5-0.5c-0.5-0.1-1.1-0.2-1.7-0.2c-0.6,0-1.1,0.1-1.5,0.3c-0.4,0.2-0.5,0.5-0.5,0.9c0,0.4,0.1,0.7,0.4,0.9
			c0.3,0.2,0.6,0.3,1.1,0.5l1.6,0.5c0.5,0.2,1,0.3,1.4,0.6c0.4,0.2,0.8,0.5,1.1,0.8c0.3,0.3,0.5,0.7,0.7,1.2c0.2,0.5,0.3,1,0.3,1.7
			c0,0.7-0.1,1.4-0.4,2c-0.3,0.6-0.7,1.1-1.3,1.6c-0.6,0.4-1.2,0.8-2,1c-0.8,0.3-1.7,0.4-2.7,0.4c-0.5,0-0.9,0-1.2,0
			c-0.4,0-0.7-0.1-1.1-0.1c-0.4-0.1-0.7-0.1-1-0.2c-0.3-0.1-0.7-0.2-1.1-0.4c0-0.5,0.1-1,0.3-1.5c0.1-0.5,0.3-1,0.6-1.5
			c0.6,0.2,1.2,0.4,1.8,0.6c0.6,0.1,1.1,0.2,1.7,0.2c0.3,0,0.6,0,0.9-0.1c0.3,0,0.6-0.1,0.9-0.3c0.3-0.1,0.5-0.3,0.7-0.5
			c0.2-0.2,0.3-0.5,0.3-0.8c0-0.5-0.1-0.8-0.4-1c-0.3-0.2-0.7-0.4-1.1-0.5L272.6,46.3"/>
		<path id="Fill-11" class="st0" d="M186.2,33.6c0-1.3,1-2.3,2.3-2.3c1.3,0,2.3,1,2.3,2.3c0,1.3-1,2.3-2.3,2.3
			C187.2,35.9,186.2,34.9,186.2,33.6"/>
		<path id="Fill-12" class="st0" d="M213.8,38l3.9,0v14.7c-0.7,0.1-1.3,0.2-2,0.2c-0.6,0-1.3-0.1-2-0.2V38"/>
		<path id="Fill-13" class="st0" d="M213.5,33.6c0-1.3,1-2.3,2.3-2.3c1.3,0,2.3,1,2.3,2.3c0,1.3-1,2.3-2.3,2.3
			C214.5,35.9,213.5,34.9,213.5,33.6"/>
		<path id="Fill-14" class="st0" d="M282.1,35.9c-0.3,0-0.6-0.1-0.9-0.2c-0.3-0.1-0.5-0.3-0.7-0.5c-0.2-0.2-0.3-0.4-0.5-0.7
			c-0.1-0.3-0.2-0.6-0.2-0.9c0-0.3,0.1-0.6,0.2-0.9c0.1-0.3,0.3-0.5,0.5-0.7c0.2-0.2,0.4-0.4,0.7-0.5c0.3-0.1,0.6-0.2,0.9-0.2
			c0.3,0,0.6,0.1,0.9,0.2c0.3,0.1,0.5,0.3,0.7,0.5c0.2,0.2,0.3,0.4,0.5,0.7c0.1,0.3,0.2,0.6,0.2,0.9c0,0.3-0.1,0.6-0.2,0.9
			c-0.1,0.3-0.3,0.5-0.5,0.7c-0.2,0.2-0.4,0.4-0.7,0.5C282.7,35.8,282.4,35.9,282.1,35.9 M282.1,35.4c0.3,0,0.5,0,0.7-0.1
			c0.2-0.1,0.4-0.2,0.6-0.4c0.2-0.2,0.3-0.4,0.3-0.6c0.1-0.2,0.1-0.5,0.1-0.7c0-0.3,0-0.5-0.1-0.7c-0.1-0.2-0.2-0.4-0.3-0.6
			c-0.2-0.2-0.3-0.3-0.6-0.4c-0.2-0.1-0.5-0.1-0.7-0.1c-0.3,0-0.5,0-0.7,0.1c-0.2,0.1-0.4,0.2-0.6,0.4c-0.2,0.2-0.3,0.4-0.3,0.6
			c-0.1,0.2-0.1,0.5-0.1,0.7c0,0.3,0,0.5,0.1,0.7c0.1,0.2,0.2,0.4,0.3,0.6c0.2,0.2,0.3,0.3,0.6,0.4
			C281.5,35.4,281.8,35.4,282.1,35.4 M281.2,32.4c0.1,0,0.2,0,0.3,0c0.1,0,0.2,0,0.4,0c0.4,0,0.7,0.1,0.8,0.2
			c0.2,0.1,0.2,0.3,0.2,0.5c0,0.1,0,0.3-0.1,0.4c-0.1,0.1-0.1,0.2-0.2,0.2l-0.1,0.1l0.5,0.9c-0.1,0-0.1,0-0.2,0c-0.1,0-0.1,0-0.2,0
			c-0.1,0-0.1,0-0.2,0c-0.1,0-0.1,0-0.1,0l-0.5-1.1l0.1-0.1c0.1-0.1,0.2-0.1,0.2-0.2c0.1-0.1,0.1-0.1,0.1-0.2c0-0.1,0-0.2-0.1-0.2
			c-0.1-0.1-0.1-0.1-0.3-0.1c0,0-0.1,0-0.1,0c0,0-0.1,0-0.1,0v1.9c-0.1,0-0.2,0-0.3,0c-0.1,0-0.1,0-0.2,0c-0.1,0-0.1,0-0.2,0V32.4"
			/>
	</g>
</g>
</svg>
