<?xml version="1.0" encoding="UTF-8"?>
<svg width="426px" height="128px" viewBox="0 0 426 128" version="1.1" xmlns="http://www.w3.org/2000/svg" xmlns:xlink="http://www.w3.org/1999/xlink">
    <!-- Generator: Sketch 42 (36781) - http://www.bohemiancoding.com/sketch -->
    <title>PrimaryOrangeGrey_RGB</title>
    <desc>Created with Sketch.</desc>
    <defs></defs>
    <g id="Page-1" stroke="none" stroke-width="1" fill="none" fill-rule="evenodd">
        <g id="PrimaryOrangeGrey_RGB">
            <path d="M0,64.362 C0,29.215 28.491,0.721 63.639,0.721 C98.787,0.721 127.277,29.215 127.277,64.362 C127.277,99.508 98.787,128 63.639,128 C28.491,128 0,99.508 0,64.362" id="Fill-1" fill="#E2722B"></path>
            <path d="M95.239,27.88 L32.039,27.88 C25.963,27.88 21.021,32.824 21.021,38.899 L21.021,41.156 C21.021,47.233 25.963,52.177 32.039,52.177 L35.778,52.177 C36.602,54.499 38.796,56.173 41.4,56.173 C44.707,56.173 47.389,53.492 47.389,50.186 C47.389,46.878 44.707,44.199 41.4,44.199 C38.796,44.199 36.602,45.872 35.778,48.195 L32.039,48.195 C28.159,48.195 25.002,45.037 25.002,41.156 L25.002,38.899 C25.002,35.018 28.159,31.863 32.039,31.863 L95.239,31.863 C99.118,31.863 102.275,35.018 102.275,38.899 L102.275,41.156 C102.275,45.037 99.118,48.195 95.239,48.195 L62.509,48.195 C56.435,48.195 51.492,53.138 51.492,59.215 L51.492,102.099 C51.492,108.173 56.435,113.117 62.509,113.117 L64.768,113.117 C70.842,113.117 75.786,108.173 75.786,102.099 L75.786,67.889 C78.108,67.066 79.782,64.871 79.782,62.266 C79.782,58.959 77.1,56.279 73.795,56.279 C70.49,56.279 67.808,58.959 67.808,62.266 C67.808,64.871 69.482,67.066 71.804,67.889 L71.804,102.099 C71.804,105.979 68.648,109.134 64.768,109.134 L62.509,109.134 C58.63,109.134 55.473,105.979 55.473,102.099 L55.473,59.215 C55.473,55.334 58.63,52.177 62.509,52.177 L95.239,52.177 C101.314,52.177 106.256,47.233 106.256,41.156 L106.256,38.899 C106.256,32.824 101.314,27.88 95.239,27.88" id="Fill-2" fill="#FFFFFF"></path>
            <path d="M154.241,53.582 L145.917,53.582 L145.917,43.597 L154.241,43.597 L154.241,27.788 L166.51,27.788 L166.51,43.597 L179.618,43.597 L179.618,53.582 L166.51,53.582 L166.51,74.906 C166.51,77.679 166.978,79.809 167.917,81.305 C168.851,82.796 170.358,83.537 172.441,83.537 C174.381,83.537 175.925,83.262 177.067,82.704 C178.212,82.151 179.303,81.493 180.345,80.728 L185.546,88.324 C183.117,90.336 180.725,91.774 178.37,92.64 C176.011,93.506 173.376,93.937 170.464,93.937 C167.483,93.937 164.951,93.506 162.872,92.64 C160.791,91.774 159.109,90.542 157.827,88.948 C156.542,87.353 155.625,85.427 155.07,83.174 C154.514,80.921 154.241,78.443 154.241,75.737 L154.241,53.582" id="Fill-3" fill="#4E504F"></path>
            <path d="M188.771,43.597 L200.524,43.597 L200.833,49.735 C201.388,49.04 202.101,48.279 202.967,47.445 C203.834,46.615 204.856,45.852 206.037,45.158 C207.214,44.467 208.583,43.877 210.147,43.389 C211.704,42.904 213.487,42.662 215.5,42.662 C216.679,42.662 217.736,42.732 218.674,42.868 C219.61,43.009 220.56,43.252 221.532,43.597 L219.037,55.144 C218.204,54.795 217.356,54.552 216.49,54.413 C215.62,54.277 214.597,54.205 213.421,54.205 C211.754,54.205 210.16,54.487 208.636,55.038 C207.111,55.593 205.792,56.388 204.684,57.432 C203.576,58.471 202.689,59.719 202.032,61.175 C201.37,62.631 201.042,64.261 201.042,66.063 L201.042,92.38 L188.771,92.38 L188.771,43.597" id="Fill-4" fill="#4E504F"></path>
            <polygon id="Fill-5" fill="#4E504F" points="225.859 92.38 238.128 92.38 238.128 43.597 225.859 43.597"></polygon>
            <path d="M258.591,80.419 C261.017,82.431 264.69,83.434 269.616,83.434 C271.837,83.434 273.81,83.004 275.542,82.135 C277.278,81.267 278.75,80.121 279.963,78.699 C281.177,77.282 282.097,75.669 282.722,73.864 C283.347,72.064 283.658,70.192 283.658,68.249 C283.658,66.168 283.431,64.226 282.982,62.423 C282.529,60.619 281.801,59.043 280.796,57.691 C279.792,56.339 278.491,55.265 276.894,54.468 C275.301,53.671 273.328,53.273 270.967,53.273 C269.096,53.273 267.398,53.671 265.874,54.468 C264.346,55.265 263.045,56.287 261.971,57.533 C260.893,58.784 260.06,60.154 259.475,61.645 C258.883,63.137 258.591,64.573 258.591,65.96 L258.591,80.419 Z M246.419,43.597 L258.277,43.597 L258.591,49.112 C259.216,48.417 259.995,47.688 260.93,46.926 C261.866,46.162 262.976,45.47 264.258,44.843 C265.542,44.22 267,43.699 268.628,43.286 C270.255,42.868 272.079,42.662 274.088,42.662 C277.833,42.662 281.075,43.389 283.815,44.843 C286.552,46.301 288.825,48.223 290.626,50.616 C292.431,53.01 293.78,55.733 294.682,58.784 C295.584,61.834 296.034,64.99 296.034,68.249 C296.034,72.064 295.479,75.32 294.372,78.024 C293.261,80.728 291.875,83.088 290.213,85.098 C287.436,88.427 284.4,90.751 281.107,92.067 C277.815,93.382 274.435,94.041 270.967,94.041 C269.375,94.041 268.004,93.972 266.861,93.835 C265.716,93.695 264.675,93.506 263.74,93.261 C262.8,93.018 261.935,92.744 261.138,92.432 C260.341,92.121 259.49,91.792 258.591,91.445 L258.591,113.183 L246.419,113.183 L246.419,43.597 L246.419,43.597 Z" id="Fill-6" fill="#4E504F"></path>
            <path d="M304.117,78.443 C305.64,79.966 307.566,81.232 309.89,82.237 C312.214,83.245 314.864,83.746 317.849,83.746 C320.483,83.746 322.595,83.401 324.192,82.704 C325.786,82.014 326.585,80.87 326.585,79.276 C326.585,78.581 326.447,77.94 326.169,77.348 C325.891,76.759 325.299,76.19 324.4,75.634 C323.498,75.078 322.249,74.525 320.655,73.968 C319.058,73.416 316.91,72.825 314.206,72.201 C312.543,71.786 310.807,71.231 309.006,70.534 C307.201,69.844 305.52,68.891 303.963,67.677 C302.4,66.464 301.117,65.006 300.112,63.307 C299.107,61.608 298.603,59.582 298.603,57.221 C298.603,54.795 299.191,52.63 300.375,50.719 C301.551,48.814 303.093,47.218 305.001,45.94 C306.909,44.656 309.057,43.667 311.451,42.973 C313.844,42.281 316.251,41.931 318.682,41.931 C322.975,41.931 326.636,42.384 329.651,43.286 C332.669,44.186 335.388,45.539 337.818,47.343 L331.471,55.976 C330.156,55.005 328.419,54.119 326.271,53.321 C324.123,52.526 321.59,52.128 318.682,52.128 C315.766,52.128 313.738,52.561 312.594,53.425 C311.451,54.296 310.88,55.349 310.88,56.597 C310.88,58.124 311.831,59.323 313.738,60.187 C315.645,61.055 318.609,61.974 322.632,62.946 C325.127,63.499 327.364,64.192 329.34,65.021 C331.318,65.854 333.013,66.896 334.438,68.145 C335.856,69.391 336.949,70.867 337.712,72.567 C338.476,74.264 338.859,76.293 338.859,78.649 C338.859,81.007 338.3,83.14 337.193,85.045 C336.083,86.956 334.577,88.566 332.669,89.881 C330.762,91.2 328.541,92.224 326.012,92.954 C323.48,93.678 320.793,94.041 317.951,94.041 C313.376,94.041 309.248,93.404 305.575,92.121 C301.895,90.837 298.95,88.948 296.732,86.45 L304.117,78.443" id="Fill-7" fill="#4E504F"></path>
            <path d="M349.551,53.582 L341.231,53.582 L341.231,43.597 L349.551,43.597 L349.551,27.788 L361.822,27.788 L361.822,43.597 L374.932,43.597 L374.932,53.582 L361.822,53.582 L361.822,74.906 C361.822,77.679 362.289,79.809 363.228,81.305 C364.164,82.796 365.672,83.537 367.751,83.537 C369.692,83.537 371.238,83.262 372.381,82.704 C373.525,82.151 374.618,81.493 375.656,80.728 L380.859,88.324 C378.432,90.336 376.036,91.774 373.678,92.64 C371.326,93.506 368.691,93.937 365.775,93.937 C362.793,93.937 360.265,93.506 358.182,92.64 C356.103,91.774 354.421,90.542 353.139,88.948 C351.853,87.353 350.936,85.427 350.384,83.174 C349.825,80.921 349.551,78.443 349.551,75.737 L349.551,53.582" id="Fill-8" fill="#4E504F"></path>
            <path d="M413.446,70.328 C412.196,70.261 410.983,70.192 409.806,70.12 C408.834,70.053 407.811,70.001 406.733,69.965 C405.659,69.932 404.742,69.911 403.978,69.911 C400.028,69.911 397.25,70.692 395.658,72.252 C394.061,73.813 393.264,75.599 393.264,77.611 C393.264,79.69 394.009,81.32 395.504,82.496 C396.992,83.678 399.195,84.267 402.107,84.267 C403.561,84.267 404.968,84.024 406.32,83.537 C407.672,83.052 408.867,82.394 409.905,81.561 C410.95,80.728 411.797,79.759 412.456,78.649 C413.113,77.539 413.446,76.362 413.446,75.116 L413.446,70.328 Z M413.446,87.802 C412.126,89.397 410.117,90.821 407.409,92.067 C404.705,93.316 401.691,93.937 398.362,93.937 C396.352,93.937 394.357,93.63 392.38,93.003 C390.403,92.38 388.598,91.427 386.972,90.143 C385.342,88.858 384.023,87.214 383.022,85.2 C382.013,83.193 381.513,80.833 381.513,78.13 C381.513,75.357 382.032,72.875 383.073,70.692 C384.111,68.509 385.569,66.672 387.44,65.178 C389.314,63.687 391.565,62.562 394.2,61.8 C396.837,61.038 399.75,60.655 402.94,60.655 C403.909,60.655 404.983,60.673 406.163,60.705 C407.343,60.742 408.487,60.797 409.594,60.861 C410.844,60.932 412.126,61.003 413.446,61.071 L413.446,59.927 C413.446,57.501 412.473,55.593 410.533,54.205 C408.589,52.821 406.057,52.128 402.94,52.128 C399.472,52.128 396.696,52.579 394.62,53.478 C392.537,54.38 390.699,55.349 389.106,56.388 L383.49,48.07 C384.458,47.375 385.569,46.665 386.819,45.94 C388.065,45.207 389.523,44.551 391.185,43.963 C392.848,43.37 394.773,42.889 396.958,42.505 C399.144,42.124 401.691,41.931 404.603,41.931 C407.723,41.931 410.548,42.367 413.08,43.232 C415.613,44.102 417.776,45.313 419.581,46.871 C421.382,48.432 422.771,50.306 423.743,52.491 C424.71,54.673 425.197,57.048 425.197,59.616 L425.197,92.38 L413.756,92.38 L413.446,87.802 L413.446,87.802 Z" id="Fill-9" fill="#4E504F"></path>
            <path d="M224.542,27.271 C224.542,23.14 227.89,19.791 232.023,19.791 C236.152,19.791 239.499,23.14 239.499,27.271 C239.499,31.397 236.152,34.747 232.023,34.747 C227.89,34.747 224.542,31.397 224.542,27.271" id="Fill-10" fill="#4E504F"></path>
        </g>
    </g>
</svg>