<?xml version="1.0" encoding="utf-8"?>
<!-- Generator: Adobe Illustrator 21.0.0, SVG Export Plug-In . SVG Version: 6.00 Build 0)  -->
<svg version="1.1" id="Layer_1" xmlns="http://www.w3.org/2000/svg" xmlns:xlink="http://www.w3.org/1999/xlink" x="0px" y="0px"
	 viewBox="0 0 151.9 46.6" style="enable-background:new 0 0 151.9 46.6;" xml:space="preserve">
<style type="text/css">
	.st0{fill:#E2722B;}
	.st1{fill:#FFFFFF;}
	.st2{fill:#4E504F;}
</style>
<title>PrimaryOrangeGrey_RGB</title>
<desc>Created with Sketch.</desc>
<g id="Page-1">
	<g id="PrimaryOrangeGrey_RGB">
		<path id="Fill-1" class="st0" d="M0.9,23.3C0.9,10.9,11,0.9,23.4,0.9s22.5,10.1,22.5,22.5c0,12.4-10.1,22.5-22.5,22.5
			S0.9,35.7,0.9,23.3"/>
		<path id="Fill-2" class="st1" d="M34.5,10.4H12.2c-2.1,0-3.9,1.7-3.9,3.9v0.8c0,2.1,1.7,3.9,3.9,3.9h1.3c0.3,0.8,1.1,1.4,2,1.4
			c1.2,0,2.1-0.9,2.1-2.1c0-1.2-0.9-2.1-2.1-2.1c-0.9,0-1.7,0.6-2,1.4h-1.3c-1.4,0-2.5-1.1-2.5-2.5v-0.8c0-1.4,1.1-2.5,2.5-2.5h22.3
			c1.4,0,2.5,1.1,2.5,2.5v0.8c0,1.4-1.1,2.5-2.5,2.5H23c-2.1,0-3.9,1.7-3.9,3.9v15.1c0,2.1,1.7,3.9,3.9,3.9h0.8
			c2.1,0,3.9-1.7,3.9-3.9V24.5c0.8-0.3,1.4-1.1,1.4-2c0-1.2-0.9-2.1-2.1-2.1s-2.1,0.9-2.1,2.1c0,0.9,0.6,1.7,1.4,2v12.1
			c0,1.4-1.1,2.5-2.5,2.5H23c-1.4,0-2.5-1.1-2.5-2.5V21.5c0-1.4,1.1-2.5,2.5-2.5h11.5c2.1,0,3.9-1.7,3.9-3.9v-0.8
			C38.4,12.2,36.7,10.4,34.5,10.4"/>
		<path id="Fill-3" class="st2" d="M55.3,19.5h-2.9V16h2.9v-5.6h4.3V16h4.6v3.5h-4.6V27c0,1,0.2,1.7,0.5,2.3
			c0.3,0.5,0.9,0.8,1.6,0.8c0.7,0,1.2-0.1,1.6-0.3c0.4-0.2,0.8-0.4,1.2-0.7l1.8,2.7c-0.9,0.7-1.7,1.2-2.5,1.5
			c-0.8,0.3-1.8,0.5-2.8,0.5c-1.1,0-1.9-0.2-2.7-0.5c-0.7-0.3-1.3-0.7-1.8-1.3c-0.5-0.6-0.8-1.2-1-2c-0.2-0.8-0.3-1.7-0.3-2.6V19.5"
			/>
		<path id="Fill-4" class="st2" d="M67.5,16h4.1l0.1,2.2c0.2-0.2,0.4-0.5,0.8-0.8c0.3-0.3,0.7-0.6,1.1-0.8c0.4-0.2,0.9-0.5,1.4-0.6
			c0.5-0.2,1.2-0.3,1.9-0.3c0.4,0,0.8,0,1.1,0.1c0.3,0,0.7,0.1,1,0.3l-0.9,4.1c-0.3-0.1-0.6-0.2-0.9-0.3c-0.3,0-0.7-0.1-1.1-0.1
			c-0.6,0-1.2,0.1-1.7,0.3c-0.5,0.2-1,0.5-1.4,0.8c-0.4,0.4-0.7,0.8-0.9,1.3c-0.2,0.5-0.3,1.1-0.3,1.7v9.3h-4.3V16"/>
		<polygon id="Fill-5" class="st2" points="80.6,33.2 84.9,33.2 84.9,16 80.6,16 		"/>
		<path id="Fill-6" class="st2" d="M92.2,29C93,29.7,94.3,30,96,30c0.8,0,1.5-0.2,2.1-0.5c0.6-0.3,1.1-0.7,1.6-1.2
			c0.4-0.5,0.8-1.1,1-1.7c0.2-0.6,0.3-1.3,0.3-2c0-0.7-0.1-1.4-0.2-2.1c-0.2-0.6-0.4-1.2-0.8-1.7c-0.4-0.5-0.8-0.9-1.4-1.1
			c-0.6-0.3-1.3-0.4-2.1-0.4c-0.7,0-1.3,0.1-1.8,0.4c-0.5,0.3-1,0.6-1.4,1.1c-0.4,0.4-0.7,0.9-0.9,1.5c-0.2,0.5-0.3,1-0.3,1.5V29z
			 M87.9,16H92l0.1,1.9c0.2-0.2,0.5-0.5,0.8-0.8c0.3-0.3,0.7-0.5,1.2-0.7c0.5-0.2,1-0.4,1.5-0.5c0.6-0.1,1.2-0.2,1.9-0.2
			c1.3,0,2.5,0.3,3.4,0.8c1,0.5,1.8,1.2,2.4,2c0.6,0.8,1.1,1.8,1.4,2.9c0.3,1.1,0.5,2.2,0.5,3.3c0,1.3-0.2,2.5-0.6,3.4
			c-0.4,1-0.9,1.8-1.5,2.5c-1,1.2-2.1,2-3.2,2.5c-1.2,0.5-2.4,0.7-3.6,0.7c-0.6,0-1,0-1.4-0.1c-0.4,0-0.8-0.1-1.1-0.2
			c-0.3-0.1-0.6-0.2-0.9-0.3c-0.3-0.1-0.6-0.2-0.9-0.3v7.7h-4.3V16L87.9,16z"/>
		<path id="Fill-7" class="st2" d="M108.2,28.3c0.5,0.5,1.2,1,2,1.3c0.8,0.4,1.8,0.5,2.8,0.5c0.9,0,1.7-0.1,2.2-0.4
			c0.6-0.2,0.8-0.6,0.8-1.2c0-0.2,0-0.5-0.1-0.7c-0.1-0.2-0.3-0.4-0.6-0.6c-0.3-0.2-0.8-0.4-1.3-0.6c-0.6-0.2-1.3-0.4-2.3-0.6
			c-0.6-0.1-1.2-0.3-1.8-0.6c-0.6-0.2-1.2-0.6-1.8-1c-0.6-0.4-1-0.9-1.4-1.5c-0.4-0.6-0.5-1.3-0.5-2.1c0-0.9,0.2-1.6,0.6-2.3
			c0.4-0.7,1-1.2,1.6-1.7c0.7-0.5,1.4-0.8,2.3-1c0.8-0.2,1.7-0.4,2.6-0.4c1.5,0,2.8,0.2,3.9,0.5c1.1,0.3,2,0.8,2.9,1.4l-2.2,3
			c-0.5-0.3-1.1-0.7-1.8-0.9c-0.8-0.3-1.7-0.4-2.7-0.4c-1,0-1.7,0.2-2.1,0.5c-0.4,0.3-0.6,0.7-0.6,1.1c0,0.5,0.3,1,1,1.3
			c0.7,0.3,1.7,0.6,3.1,1c0.9,0.2,1.7,0.4,2.4,0.7c0.7,0.3,1.3,0.7,1.8,1.1c0.5,0.4,0.9,1,1.2,1.6c0.3,0.6,0.4,1.3,0.4,2.1
			c0,0.8-0.2,1.6-0.6,2.3c-0.4,0.7-0.9,1.2-1.6,1.7c-0.7,0.5-1.5,0.8-2.3,1.1c-0.9,0.3-1.8,0.4-2.8,0.4c-1.6,0-3.1-0.2-4.4-0.7
			c-1.3-0.5-2.3-1.1-3.1-2L108.2,28.3"/>
		<path id="Fill-8" class="st2" d="M124.2,19.5h-2.9V16h2.9v-5.6h4.3V16h4.6v3.5h-4.6V27c0,1,0.2,1.7,0.5,2.3
			c0.3,0.5,0.9,0.8,1.6,0.8c0.7,0,1.2-0.1,1.6-0.3c0.4-0.2,0.8-0.4,1.2-0.7l1.8,2.7c-0.9,0.7-1.7,1.2-2.5,1.5
			c-0.8,0.3-1.8,0.5-2.8,0.5c-1.1,0-1.9-0.2-2.7-0.5c-0.7-0.3-1.3-0.7-1.8-1.3c-0.5-0.6-0.8-1.2-1-2c-0.2-0.8-0.3-1.7-0.3-2.6V19.5"
			/>
		<path id="Fill-9" class="st2" d="M146.8,25.4c-0.4,0-0.9,0-1.3-0.1c-0.3,0-0.7,0-1.1-0.1c-0.4,0-0.7,0-1,0c-1.4,0-2.4,0.3-2.9,0.8
			c-0.6,0.6-0.8,1.2-0.8,1.9c0,0.7,0.3,1.3,0.8,1.7c0.5,0.4,1.3,0.6,2.3,0.6c0.5,0,1-0.1,1.5-0.3c0.5-0.2,0.9-0.4,1.3-0.7
			c0.4-0.3,0.7-0.6,0.9-1c0.2-0.4,0.3-0.8,0.3-1.2V25.4z M146.8,31.6c-0.5,0.6-1.2,1.1-2.1,1.5c-1,0.4-2,0.7-3.2,0.7
			c-0.7,0-1.4-0.1-2.1-0.3c-0.7-0.2-1.3-0.6-1.9-1c-0.6-0.5-1-1-1.4-1.7c-0.4-0.7-0.5-1.5-0.5-2.5c0-1,0.2-1.9,0.6-2.6
			c0.4-0.8,0.9-1.4,1.5-1.9c0.7-0.5,1.5-0.9,2.4-1.2c0.9-0.3,2-0.4,3.1-0.4c0.3,0,0.7,0,1.1,0c0.4,0,0.8,0,1.2,0.1
			c0.4,0,0.9,0.1,1.4,0.1v-0.4c0-0.9-0.3-1.5-1-2c-0.7-0.5-1.6-0.7-2.7-0.7c-1.2,0-2.2,0.2-2.9,0.5c-0.7,0.3-1.4,0.7-1.9,1l-2-2.9
			c0.3-0.2,0.7-0.5,1.2-0.8c0.4-0.3,1-0.5,1.5-0.7c0.6-0.2,1.3-0.4,2-0.5c0.8-0.1,1.7-0.2,2.7-0.2c1.1,0,2.1,0.2,3,0.5
			c0.9,0.3,1.7,0.7,2.3,1.3c0.6,0.6,1.1,1.2,1.5,2c0.3,0.8,0.5,1.6,0.5,2.5v11.6h-4L146.8,31.6L146.8,31.6z"/>
		<path id="Fill-10" class="st2" d="M80.1,10.2c0-1.5,1.2-2.6,2.6-2.6c1.5,0,2.6,1.2,2.6,2.6c0,1.5-1.2,2.6-2.6,2.6
			C81.3,12.9,80.1,11.7,80.1,10.2"/>
	</g>
</g>
</svg>
