<?xml version="1.0" encoding="utf-8"?>
<!-- Generator: Adobe Illustrator 21.0.0, SVG Export Plug-In . SVG Version: 6.00 Build 0)  -->
<svg version="1.1" id="Layer_1" xmlns="http://www.w3.org/2000/svg" xmlns:xlink="http://www.w3.org/1999/xlink" x="0px" y="0px"
	 viewBox="0 0 14 16" style="enable-background:new 0 0 14 16;" xml:space="preserve">
<style type="text/css">
	.st0{fill:#00A3E0;}
</style>
<title>passHover</title>
<desc>Created with Sketch.</desc>
<g id="Page-1">
	<path id="passHover" class="st0" d="M9,5H5V4c0-1.1,0.9-2,2-2s2,0.9,2,2V5z M8,11.7V13H6v-1.3c-0.6-0.3-1-1-1-1.7c0-1.1,0.9-2,2-2
		s2,0.9,2,2C9,10.7,8.6,11.4,8,11.7L8,11.7z M7,0C4.8,0,3,1.8,3,4v1H1C0.4,5,0,5.4,0,6v9c0,0.6,0.4,1,1,1h12c0.6,0,1-0.4,1-1V6
		c0-0.6-0.4-1-1-1h-2V4C11,1.8,9.2,0,7,0L7,0z"/>
</g>
</svg>
